<?xml version="1.0" encoding="utf-8"?>
<!-- Generator: Adobe Illustrator 22.1.0, SVG Export Plug-In . SVG Version: 6.00 Build 0)  -->
<svg version="1.1" id="Layer_1" xmlns="http://www.w3.org/2000/svg" xmlns:xlink="http://www.w3.org/1999/xlink" x="0px" y="0px"
	 viewBox="0 0 100 22.5" style="enable-background:new 0 0 100 22.5;" xml:space="preserve">
<style type="text/css">
	.st0{fill:#272235;}
</style>
<g>
	<path class="st0" d="M7.6,21.7c-4.2,0-7.5-2.1-7.6-6h5.1c0.1,1.5,1.1,2.3,2.4,2.3c1.4,0,2.3-0.7,2.3-1.9c0-3.6-9.8-1.7-9.7-8.6
		c0-3.7,3-5.7,7.1-5.7c4.2,0,7.1,2.1,7.3,5.9H9.4c-0.1-1.3-1-2.1-2.3-2.1c-1.2,0-2,0.6-2,1.8c0,3.4,9.6,1.9,9.6,8.4
		C14.7,19,12.2,21.7,7.6,21.7z"/>
	<path class="st0" d="M17.6,2.1h4.8v19.5h-4.8V2.1z"/>
	<path class="st0" d="M25.9,2.1h5.6l5.5,13.5l5.4-13.5h5.6v19.5h-4.8V9.8l-4.4,11.7h-3.9L30.6,9.8v11.7h-4.8L25.9,2.1L25.9,2.1z"/>
</g>
<g>
	<path class="st0" d="M54.1,3.9h-1V2.1h1V0h2.2v2.1h1.9v1.7h-1.9V8c0,0.6,0.3,0.8,0.9,0.8h1v1.8h-1.4c-1.6,0-2.7-0.7-2.7-2.6
		L54.1,3.9L54.1,3.9z"/>
	<path class="st0" d="M61.9,10.6h-2.2V2.1h2.2v1.4C62.4,2.6,63.3,2,64.5,2v2.3h-0.6c-1.3,0-2.1,0.5-2.1,2.1V10.6z"/>
	<path class="st0" d="M69.3,2c1.4,0,2.3,0.6,2.8,1.4V2.1h2.2v8.6h-2.2V9.5c-0.5,0.7-1.5,1.4-2.8,1.4c-2.2,0-3.9-1.8-3.9-4.4
		C65.4,3.7,67.1,2,69.3,2z M69.8,3.9c-1.2,0-2.3,0.8-2.3,2.5c0,1.6,1.1,2.6,2.3,2.6s2.3-0.9,2.3-2.5C72.1,4.8,71.1,3.9,69.8,3.9z"/>
	<path class="st0" d="M80.1,2c2.1,0,3.5,1.1,4,3h-2.3c-0.3-0.7-0.8-1.2-1.7-1.2c-1.2,0-2,0.9-2,2.6S78.8,9,80,9
		c0.9,0,1.5-0.4,1.7-1.2h2.3c-0.5,1.8-1.9,3-4,3c-2.4,0-4.2-1.7-4.2-4.4C75.8,3.7,77.6,2,80.1,2z"/>
	<path class="st0" d="M89.4,10.8c-2.5,0-4.3-1.7-4.3-4.4c0-2.7,1.7-4.4,4.3-4.4c2.4,0,4.2,1.7,4.2,4.2c0,0.3,0,0.6-0.1,0.8h-6.2
		c0.1,1.3,1,2,2.1,2c0.9,0,1.4-0.5,1.7-1h2.3C92.9,9.5,91.5,10.8,89.4,10.8z M87.3,5.6h4.1c0-1.1-0.9-1.8-2.1-1.8
		C88.3,3.7,87.5,4.4,87.3,5.6z"/>
	<path class="st0" d="M97.3,10.6h-2.1V2.1h2.2v1.4C97.9,2.6,98.8,2,100,2v2.3h-0.6c-1.3,0-2.1,0.5-2.1,2.1L97.3,10.6L97.3,10.6z"/>
	<path class="st0" d="M54.1,15.6h-1v-1.8h1v-2.1h2.2v2.1h1.9v1.8h-1.9v4.1c0,0.6,0.3,0.8,0.9,0.8h1v1.8h-1.4c-1.6,0-2.7-0.7-2.7-2.6
		L54.1,15.6L54.1,15.6z"/>
	<path class="st0" d="M63.5,22.4c-2.4,0-4.3-1.7-4.3-4.4c0-2.7,1.9-4.4,4.4-4.4c2.4,0,4.4,1.7,4.4,4.4C68,20.7,66,22.4,63.5,22.4z
		 M63.5,20.6c1.2,0,2.3-0.8,2.3-2.5c0-1.7-1.1-2.5-2.2-2.5c-1.1,0-2.2,0.8-2.2,2.5C61.4,19.7,62.4,20.6,63.5,20.6z"/>
	<path class="st0" d="M73.3,22.4c-2.4,0-4.3-1.7-4.3-4.4c0-2.7,1.9-4.4,4.4-4.4c2.4,0,4.4,1.7,4.4,4.4
		C77.8,20.7,75.8,22.4,73.3,22.4z M73.3,20.6c1.2,0,2.3-0.8,2.3-2.5c0-1.7-1.1-2.5-2.2-2.5s-2.2,0.8-2.2,2.5S72.2,20.6,73.3,20.6z"
		/>
	<path class="st0" d="M79.4,10.9h2.2v11.4h-2.2V10.9z"/>
</g>
</svg>
