<?xml version="1.0" encoding="utf-8"?>
<!-- Generator: Adobe Illustrator 22.1.0, SVG Export Plug-In . SVG Version: 6.00 Build 0)  -->
<svg version="1.1" id="Layer_1" xmlns="http://www.w3.org/2000/svg" xmlns:xlink="http://www.w3.org/1999/xlink" x="0px" y="0px"
	 viewBox="0 0 155.4 34.9" style="enable-background:new 0 0 155.4 34.9;" xml:space="preserve">
<style type="text/css">
	.st0{fill:#272235;}
</style>
<g>
	<path class="st0" d="M11.8,33.8c-6.5,0-11.6-3.2-11.8-9.4h7.9c0.2,2.3,1.7,3.5,3.8,3.5c2.2,0,3.5-1.1,3.5-2.9
		c0-5.6-15.2-2.6-15.1-13.3c0-5.7,4.7-8.9,11.1-8.9c6.6,0,11.1,3.3,11.4,9.1h-8C14.4,9.9,13,8.7,11,8.7c-1.8,0-3.1,0.9-3.1,2.8
		c0,5.3,15,2.9,15,13C22.9,29.6,18.9,33.8,11.8,33.8z"/>
	<path class="st0" d="M27.4,3.2h7.4v30.3h-7.4V3.2z"/>
	<path class="st0" d="M40.2,3.2h8.7l8.5,21l8.4-21h8.7v30.3h-7.4V15.3l-6.8,18.2h-6l-6.8-18.2v18.2h-7.4V3.2z"/>
</g>
<g>
	<path class="st0" d="M84.1,6h-1.6V3.3h1.6V0h3.4v3.3h3V6h-3v6.4c0,0.9,0.4,1.3,1.4,1.3h1.6v2.8h-2.1c-2.5,0-4.2-1.1-4.2-4.1V6z"/>
	<path class="st0" d="M96.2,16.5h-3.4V3.3h3.4v2.1c0.8-1.4,2.2-2.3,4.1-2.3v3.5h-0.9c-2,0-3.2,0.8-3.2,3.3V16.5z"/>
	<path class="st0" d="M107.7,3.1c2.1,0,3.6,1,4.4,2.1V3.3h3.4v13.3h-3.4v-1.9c-0.8,1.1-2.3,2.2-4.4,2.2c-3.4,0-6-2.8-6-6.9
		C101.7,5.7,104.4,3.1,107.7,3.1z M108.6,6c-1.8,0-3.5,1.3-3.5,3.9c0,2.5,1.7,4,3.5,4c1.8,0,3.5-1.4,3.5-3.9
		C112.1,7.4,110.5,6,108.6,6z"/>
	<path class="st0" d="M124.5,3.1c3.3,0,5.5,1.7,6.2,4.7h-3.6c-0.4-1.1-1.3-1.8-2.7-1.8c-1.9,0-3.1,1.4-3.1,4c0,2.6,1.2,4,3.1,4
		c1.4,0,2.3-0.6,2.7-1.8h3.6c-0.7,2.8-2.9,4.7-6.2,4.7c-3.8,0-6.6-2.7-6.6-6.8C117.9,5.7,120.6,3.1,124.5,3.1z"/>
	<path class="st0" d="M139,16.8c-3.9,0-6.7-2.7-6.7-6.8c0-4.2,2.7-6.8,6.7-6.8c3.8,0,6.5,2.6,6.5,6.6c0,0.4,0,0.9-0.1,1.3h-9.7
		c0.2,2,1.5,3.1,3.2,3.1c1.4,0,2.2-0.7,2.7-1.6h3.6C144.5,14.8,142.3,16.8,139,16.8z M135.8,8.7h6.3c0-1.7-1.4-2.8-3.2-2.8
		C137.3,5.8,136,6.8,135.8,8.7z"/>
	<path class="st0" d="M151.3,16.5H148V3.3h3.4v2.1c0.8-1.4,2.2-2.3,4.1-2.3v3.5h-0.9c-2,0-3.2,0.8-3.2,3.3V16.5z"/>
	<path class="st0" d="M84.1,24.2h-1.6v-2.8h1.6v-3.3h3.4v3.3h3v2.8h-3v6.4c0,0.9,0.4,1.3,1.4,1.3h1.6v2.8h-2.1
		c-2.5,0-4.2-1.1-4.2-4.1V24.2z"/>
	<path class="st0" d="M98.8,34.9c-3.8,0-6.7-2.7-6.7-6.8c0-4.2,3-6.8,6.8-6.8s6.8,2.7,6.8,6.8C105.7,32.2,102.6,34.9,98.8,34.9z
		 M98.8,32c1.8,0,3.5-1.3,3.5-3.9c0-2.7-1.7-3.9-3.4-3.9s-3.4,1.3-3.4,3.9C95.4,30.7,97,32,98.8,32z"/>
	<path class="st0" d="M114,34.9c-3.8,0-6.7-2.7-6.7-6.8c0-4.2,3-6.8,6.8-6.8s6.8,2.7,6.8,6.8C121,32.2,117.9,34.9,114,34.9z M114,32
		c1.8,0,3.5-1.3,3.5-3.9c0-2.7-1.7-3.9-3.4-3.9s-3.4,1.3-3.4,3.9C110.7,30.7,112.2,32,114,32z"/>
	<path class="st0" d="M123.4,17h3.4v17.7h-3.4V17z"/>
</g>
</svg>
