<?xml version="1.0" encoding="utf-8"?>
<!-- Generator: Adobe Illustrator 22.1.0, SVG Export Plug-In . SVG Version: 6.00 Build 0)  -->
<svg version="1.1" id="Layer_1" xmlns="http://www.w3.org/2000/svg" xmlns:xlink="http://www.w3.org/1999/xlink" x="0px" y="0px"
	 viewBox="0 0 200 35" style="enable-background:new 0 0 200 35;" xml:space="preserve">
<style type="text/css">
	.st0{fill:#515151;}
	.st1{fill:#FA4343;}
</style>
<g>
	<path class="st0" d="M32,5.2l1,0.3c-0.2,0.8-0.6,1.4-1.1,1.9c-0.6,0.4-1.2,0.6-2,0.6c-0.8,0-1.4-0.1-2-0.5
		c-0.5-0.3-0.9-0.8-1.2-1.4c-0.3-0.6-0.4-1.3-0.4-2c0-0.8,0.1-1.4,0.4-2.1c0.3-0.6,0.7-1,1.2-1.3c0.6-0.2,1.2-0.4,1.9-0.4
		c0.8,0,1.4,0.2,1.9,0.6c0.5,0.3,0.9,0.9,1.1,1.6L32,2.7c-0.2-0.6-0.4-1-0.8-1.2c-0.3-0.2-0.8-0.3-1.2-0.3c-0.6,0-1,0.1-1.4,0.4
		s-0.7,0.6-0.8,1.1s-0.2,1-0.2,1.4c0,0.6,0.1,1.2,0.3,1.7c0.2,0.5,0.5,0.8,0.9,1c0.4,0.2,0.8,0.3,1.2,0.3c0.6,0,1-0.1,1.4-0.5
		C31.6,6.3,31.8,5.8,32,5.2z"/>
	<path class="st0" d="M34.9,7.8l2.9-7.5h1.1l3,7.5h-1.1l-0.9-2.3h-3.2L36,7.8H34.9z M37,4.8h2.6l-0.8-2.1c-0.2-0.6-0.4-1.2-0.6-1.6
		c-0.1,0.5-0.2,1-0.4,1.4L37,4.8z"/>
	<path class="st0" d="M44.1,7.8V0.4h3.3c0.7,0,1.2,0.1,1.5,0.2c0.3,0.1,0.6,0.3,0.8,0.7c0.2,0.3,0.3,0.7,0.3,1.1
		c0,0.6-0.1,1-0.6,1.4c-0.4,0.4-0.9,0.6-1.6,0.7c0.3,0.1,0.5,0.3,0.6,0.3c0.3,0.3,0.6,0.6,0.8,1l1.3,2.1h-1.2l-1-1.4
		c-0.3-0.5-0.6-0.8-0.7-1c-0.2-0.2-0.3-0.4-0.5-0.5S47,4.7,46.8,4.6c-0.1,0-0.3-0.1-0.6-0.1h-1.2v3.2H44.1z M45,3.7h2.1
		c0.5,0,0.8,0,1-0.1c0.3-0.1,0.5-0.3,0.6-0.5c0.1-0.2,0.2-0.4,0.2-0.7c0-0.3-0.1-0.6-0.4-0.9c-0.3-0.2-0.7-0.3-1.2-0.3h-2.3L45,3.7
		L45,3.7z"/>
	<path class="st0" d="M53,7.8V0.4h2.6c0.6,0,1,0.1,1.3,0.1C57.3,0.6,57.8,0.8,58,1c0.4,0.3,0.7,0.8,0.9,1.3s0.3,1.1,0.3,1.8
		c0,0.6-0.1,1.1-0.2,1.5c-0.2,0.3-0.3,0.8-0.5,1c-0.2,0.3-0.4,0.5-0.7,0.7s-0.6,0.3-0.9,0.3c-0.3,0.1-0.8,0.1-1.2,0.1L53,7.8L53,7.8
		z M54,7h1.6c0.5,0,0.9-0.1,1.2-0.1c0.3-0.1,0.5-0.2,0.7-0.4c0.2-0.2,0.4-0.6,0.6-1C58.1,5,58.2,4.6,58.2,4c0-0.8-0.1-1.4-0.4-1.8
		s-0.6-0.7-1-0.8c-0.3-0.1-0.7-0.1-1.3-0.1h-1.6L54,7L54,7z"/>
	<path class="st0" d="M71.6,5.2l1,0.3c-0.2,0.8-0.6,1.4-1.1,1.9c-0.6,0.4-1.2,0.6-2,0.6c-0.8,0-1.4-0.1-2-0.5
		C67,7.1,66.6,6.6,66.3,6s-0.4-1.3-0.4-2c0-0.8,0.1-1.4,0.4-2.1c0.3-0.6,0.7-1,1.2-1.3c0.6-0.3,1.2-0.5,1.8-0.5
		c0.8,0,1.4,0.2,1.9,0.6c0.5,0.3,0.9,0.9,1.1,1.6l-1,0.2c-0.2-0.6-0.4-1-0.8-1.2C70.3,1.1,69.8,1,69.4,1c-0.6,0-1,0.1-1.4,0.4
		S67.2,2,67.1,2.5s-0.2,1-0.2,1.4c0,0.6,0.1,1.2,0.3,1.7c0.2,0.5,0.5,0.8,0.9,1C68.5,6.8,68.9,7,69.3,7c0.6,0,1-0.1,1.4-0.5
		C71.2,6.3,71.5,5.8,71.6,5.2z"/>
	<path class="st0" d="M75.3,7.8V0.4h5.4v0.9h-4.3v2.3h4.1v0.8h-4.1v2.6h4.6v0.9H75.3z"/>
	<path class="st0" d="M83.6,7.8V0.4h1l3.9,5.8V0.4h1v7.5h-1L84.6,2v5.9L83.6,7.8L83.6,7.8z"/>
	<path class="st0" d="M94.5,7.8V1.2H92V0.4h5.9v0.9h-2.4v6.6H94.5z"/>
	<path class="st0" d="M100.4,7.8V0.4h3.3c0.7,0,1.2,0.1,1.5,0.2c0.3,0.1,0.6,0.3,0.8,0.7c0.2,0.3,0.3,0.7,0.3,1.1
		c0,0.6-0.1,1-0.6,1.4c-0.4,0.4-0.9,0.6-1.6,0.7c0.3,0.1,0.5,0.3,0.6,0.3c0.3,0.3,0.6,0.6,0.8,1l1.3,2.1h-1.2l-1-1.6
		c-0.3-0.5-0.6-0.8-0.7-1c-0.2-0.2-0.3-0.4-0.5-0.5c-0.1-0.1-0.3-0.1-0.5-0.2c-0.1,0-0.3-0.1-0.6-0.1h-1.2v3.3L100.4,7.8L100.4,7.8z
		 M101.4,3.7h2.1c0.5,0,0.8-0.1,1-0.1c0.3-0.1,0.5-0.3,0.6-0.5c0.1-0.2,0.2-0.4,0.2-0.7c0-0.3-0.1-0.6-0.4-0.9
		c-0.3-0.2-0.7-0.3-1.2-0.3h-2.3L101.4,3.7L101.4,3.7z"/>
	<path class="st0" d="M109.5,7.8V0.4h1v7.5H109.5z"/>
	<path class="st0" d="M119,5.2l1,0.3c-0.2,0.8-0.6,1.4-1.1,1.9c-0.6,0.4-1.2,0.6-2,0.6s-1.4-0.1-2-0.5c-0.5-0.3-0.9-0.8-1.2-1.4
		c-0.3-0.6-0.4-1.3-0.4-2c0-0.8,0.1-1.4,0.4-2.1c0.3-0.6,0.7-1,1.2-1.3s1.2-0.5,1.8-0.5c0.8,0,1.4,0.2,1.9,0.6
		c0.5,0.3,0.9,0.9,1.1,1.6l-1,0.2c-0.2-0.6-0.4-1-0.8-1.2c-0.3-0.2-0.8-0.3-1.2-0.3c-0.6,0-1,0.1-1.4,0.4c-0.4,0.3-0.7,0.6-0.8,1.1
		s-0.2,1-0.2,1.4c0,0.6,0.1,1.2,0.3,1.7c0.2,0.5,0.5,0.8,0.9,1c0.4,0.2,0.8,0.3,1.2,0.3c0.6,0,1-0.1,1.4-0.5
		C118.6,6.3,118.9,5.8,119,5.2z"/>
	<path class="st0" d="M127,7.8V0.4h1v6.6h3.7v0.9H127z"/>
	<path class="st0" d="M134.4,7.8V0.4h1v7.5H134.4z"/>
	<path class="st0" d="M138.6,7.8V0.4h1.5l1.8,5.2c0.1,0.5,0.3,0.9,0.3,1.1c0.1-0.3,0.2-0.7,0.4-1.2l1.8-5.2h1.3v7.5h-1V1.6l-2.2,6.2
		h-0.9l-2.1-6.3v6.3C139.5,7.8,138.6,7.8,138.6,7.8z"/>
	<path class="st0" d="M148.9,7.8V0.4h1v7.5H148.9z"/>
	<path class="st0" d="M155,7.8V1.2h-2.5V0.4h5.9v0.9h-2.5v6.6H155z"/>
	<path class="st0" d="M160.9,7.8V0.4h5.4v0.9H162v2.3h4.1v0.8H162v2.6h4.6v0.9H160.9z"/>
	<path class="st0" d="M169.2,7.8V0.4h2.6c0.6,0,1,0.1,1.3,0.1c0.4,0.1,0.8,0.3,1.1,0.6c0.4,0.3,0.7,0.8,0.9,1.3s0.3,1.1,0.3,1.8
		c0,0.6-0.1,1.1-0.2,1.5c-0.1,0.4-0.3,0.8-0.5,1.1c-0.2,0.3-0.4,0.5-0.7,0.7c-0.3,0.2-0.6,0.3-0.9,0.3c-0.3,0.1-0.8,0.1-1.2,0.1
		L169.2,7.8L169.2,7.8z M170.2,7h1.6c0.5,0,0.9-0.1,1.2-0.1c0.3-0.1,0.5-0.2,0.7-0.4c0.2-0.2,0.4-0.6,0.6-1c0.1-0.4,0.2-0.9,0.2-1.4
		c0-0.8-0.1-1.4-0.4-1.8c-0.3-0.4-0.6-0.7-1-0.8c-0.3-0.1-0.7-0.1-1.3-0.1h-1.6L170.2,7L170.2,7z"/>
</g>
<g>
	<g>
		<path class="st1" d="M20.3,15.3h-8.6V9.6c0-1.7-0.1-2.8-0.3-3.2s-0.6-0.6-1.2-0.6C9.5,5.8,9,6.1,8.8,6.6S8.5,8.1,8.5,9.9v15.4
			c0,1.7,0.1,2.7,0.3,3.2c0.2,0.5,0.6,0.8,1.3,0.8c0.6,0,1.1-0.3,1.2-0.8c0.2-0.5,0.3-1.7,0.3-3.5v-4.1h8.6v1.3
			c0,3.5-0.3,5.9-0.8,7.3c-0.5,1.4-1.6,2.7-3.2,3.7c-1.7,1-3.7,1.5-6.1,1.5c-2.6,0-4.6-0.5-6.2-1.4c-1.7-0.9-2.8-2.2-3.3-3.7
			C0.2,28,0,25.5,0,22.3v-9.7c0-2.4,0.1-4.1,0.3-5.4C0.4,6,1,4.8,1.7,3.7s1.9-2,3.4-2.6c1.4-0.6,3-0.9,5-0.9c2.6,0,4.6,0.5,6.3,1.5
			c1.7,1,2.8,2.2,3.3,3.7c0.6,1.4,0.8,3.7,0.8,6.8L20.3,15.3L20.3,15.3z"/>
		<path class="st1" d="M35.8,9.9l3.5,24h-6.4l-0.3-4.3h-2.3L30,34h-6.5l3.2-24.1C26.7,9.9,35.8,9.9,35.8,9.9z M32.5,25.4
			c-0.3-2.8-0.6-6.1-1-10.1c-0.6,4.6-1,8-1.2,10.1H32.5z"/>
		<path class="st1" d="M42,9.9h4.4c3,0,4.9,0.1,6,0.3c1,0.2,1.9,0.8,2.6,1.8c0.6,1,1,2.5,1,4.5c0,1.9-0.2,3.2-0.7,3.7
			c-0.5,0.6-1.4,1-2.8,1.2c1.2,0.3,2.1,0.8,2.6,1.2c0.5,0.5,0.7,1,0.8,1.4c0.1,0.5,0.1,1.7,0.1,3.5V34h-5.8v-8
			c0-1.3-0.1-2.1-0.3-2.4c-0.2-0.3-0.8-0.5-1.6-0.5V34h-6.3L42,9.9L42,9.9z M48.2,14.1v5.3c0.7,0,1.2-0.1,1.5-0.3
			c0.3-0.2,0.4-0.8,0.4-1.9v-1.3c0-0.8-0.1-1.2-0.4-1.5C49.5,14.2,49,14.1,48.2,14.1z"/>
		<path class="st1" d="M59.9,9.9h4.7c3,0,5,0.1,6.1,0.4c1.1,0.3,1.9,0.8,2.5,1.4c0.6,0.6,0.9,1.4,1,2.1s0.2,2.3,0.2,4.6v8.4
			c0,2.2-0.1,3.6-0.3,4.3c-0.2,0.8-0.6,1.3-1.1,1.7c-0.5,0.4-1.2,0.7-1.9,0.9c-0.8,0.1-1.9,0.3-3.4,0.3h-7.9V9.9z M66.1,14.1V30
			c0.9,0,1.4-0.2,1.7-0.6c0.2-0.3,0.3-1.4,0.3-3v-9.4c0-1.1-0.1-1.8-0.1-2.1c-0.1-0.3-0.2-0.6-0.5-0.7
			C67.3,14.2,66.8,14.1,66.1,14.1z"/>
		<path class="st1" d="M99.8,20.4h-6.3v-4.1c0-1.2-0.1-2-0.2-2.3c-0.1-0.3-0.4-0.5-0.9-0.5c-0.6,0-0.8,0.2-1,0.6
			c-0.1,0.3-0.2,1.2-0.2,2.4v11.2c0,1.2,0.1,1.9,0.2,2.3s0.5,0.6,1,0.6c0.5,0,0.8-0.2,0.9-0.6s0.2-1.2,0.2-2.6v-3h6.3v1
			c0,2.5-0.2,4.2-0.6,5.3c-0.3,1-1.2,2-2.3,2.8c-1.2,0.8-2.7,1.2-4.4,1.2c-1.9,0-3.4-0.3-4.5-1c-1.2-0.7-2-1.6-2.4-2.8
			c-0.4-1.2-0.6-3-0.6-5.3v-7.1c0-1.7,0.1-3,0.2-3.9c0.1-0.9,0.5-1.7,1.1-2.6c0.6-0.8,1.4-1.4,2.5-1.9c1-0.5,2.3-0.7,3.6-0.7
			c1.9,0,3.4,0.3,4.6,1.1c1.2,0.7,2,1.6,2.4,2.7c0.4,1.1,0.6,2.8,0.6,5v2.3H99.8z"/>
		<path class="st1" d="M103.5,9.9h10.4v4.8h-4.1v4.6h3.9v4.6h-3.9v5.2h4.6v4.8h-10.8V9.9z"/>
		<path class="st1" d="M131.7,9.9V34h-5.5l-3.3-10.9V34h-5.2V9.9h5.2l3.5,10.8V9.9H131.7z"/>
		<path class="st1" d="M148.3,9.9v4.8h-3.7V34h-6.3V14.8h-3.8V10L148.3,9.9L148.3,9.9z"/>
		<path class="st1" d="M151.3,9.9h4.4c3,0,4.9,0.1,6,0.3c1,0.2,1.9,0.8,2.6,1.8s1,2.5,1,4.5c0,1.9-0.2,3.2-0.7,3.7
			c-0.5,0.6-1.4,1-2.8,1.2c1.2,0.3,2.1,0.8,2.6,1.2c0.5,0.5,0.7,1,0.8,1.4c0.1,0.5,0.1,1.7,0.1,3.5V34h-5.8v-8
			c0-1.3-0.1-2.1-0.3-2.4c-0.2-0.3-0.8-0.5-1.6-0.5V34h-6.3L151.3,9.9L151.3,9.9z M157.5,14.1v5.3c0.7,0,1.2-0.1,1.5-0.3
			s0.4-0.8,0.4-1.9v-1.3c0-0.8-0.1-1.2-0.4-1.5C158.7,14.2,158.2,14.1,157.5,14.1z"/>
		<path class="st1" d="M175.4,9.9V34h-6.3V9.9H175.4z"/>
		<path class="st1" d="M200,15.3h-8.6V9.6c0-1.7-0.1-2.8-0.3-3.2s-0.6-0.6-1.2-0.6c-0.7,0-1.2,0.3-1.4,0.8c-0.2,0.5-0.3,1.6-0.3,3.3
			v15.4c0,1.7,0.1,2.7,0.3,3.2c0.2,0.5,0.6,0.8,1.3,0.8c0.6,0,1.1-0.3,1.2-0.8c0.2-0.5,0.3-1.7,0.3-3.5v-4.1h8.6v1.3
			c0,3.5-0.3,5.9-0.8,7.3c-0.5,1.4-1.6,2.7-3.2,3.7c-1.7,1.1-3.7,1.7-6.1,1.7c-2.6,0-4.6-0.5-6.2-1.4s-2.8-2.2-3.3-3.7
			c-0.6-1.7-0.8-4-0.8-7.3v-9.9c0-2.4,0.1-4.1,0.3-5.4c0.1-1.2,0.7-2.3,1.4-3.5c0.8-1.1,1.9-2,3.4-2.6s3.1-1,5-1
			c2.6,0,4.6,0.5,6.3,1.5c1.7,1,2.8,2.2,3.3,3.7s0.8,3.7,0.8,6.8v3.1L200,15.3L200,15.3z"/>
	</g>
</g>
</svg>
