<?xml version="1.0" encoding="utf-8"?>
<!-- Generator: Adobe Illustrator 22.1.0, SVG Export Plug-In . SVG Version: 6.00 Build 0)  -->
<svg version="1.1" id="Layer_1" xmlns="http://www.w3.org/2000/svg" xmlns:xlink="http://www.w3.org/1999/xlink" x="0px" y="0px"
	 viewBox="0 0 300 75.1" style="enable-background:new 0 0 300 75.1;" xml:space="preserve">
<style type="text/css">
	.st0{fill:#515151;}
	.st1{fill:#CC0210;}
</style>
<g>
	<path class="st0" d="M50,19.7l1.4,0.4c-0.3,1.2-0.8,2.1-1.6,2.7c-0.8,0.6-1.7,0.9-2.9,0.9c-1.2,0-2.1-0.2-2.9-0.7
		c-0.7-0.5-1.3-1.2-1.7-2.1s-0.6-1.9-0.6-2.9c0-1.1,0.2-2.1,0.6-3c0.4-0.8,1-1.5,1.8-1.9c0.8-0.4,1.7-0.7,2.6-0.7
		c1.1,0,2,0.3,2.7,0.8s1.3,1.3,1.6,2.3L49.9,16c-0.3-0.8-0.6-1.4-1.1-1.7s-1.1-0.5-1.8-0.5c-0.8,0-1.5,0.2-2.1,0.6
		c-0.6,0.4-1,0.9-1.2,1.6c-0.2,0.7-0.3,1.4-0.3,2.1c0,0.9,0.1,1.7,0.4,2.4c0.3,0.7,0.7,1.2,1.3,1.5c0.6,0.3,1.2,0.5,1.8,0.5
		c0.8,0,1.5-0.2,2-0.7C49.5,21.3,49.8,20.6,50,19.7z"/>
	<path class="st0" d="M54.2,23.5l4.2-10.9h1.6l4.5,10.9h-1.6l-1.3-3.3h-4.6l-1.2,3.3H54.2z M57.3,19.1H61l-1.1-3
		c-0.3-0.9-0.6-1.7-0.8-2.3c-0.1,0.7-0.3,1.4-0.6,2.1L57.3,19.1z"/>
	<path class="st0" d="M67.7,23.5V12.6h4.8c1,0,1.7,0.1,2.2,0.3c0.5,0.2,0.9,0.5,1.2,1c0.3,0.5,0.5,1,0.5,1.6c0,0.8-0.2,1.4-0.8,2
		s-1.3,0.9-2.3,1c0.4,0.2,0.7,0.4,0.9,0.5c0.4,0.4,0.8,0.9,1.2,1.4l1.9,3h-1.8L74,21.3c-0.4-0.7-0.8-1.2-1-1.5
		c-0.3-0.3-0.5-0.6-0.7-0.7c-0.2-0.1-0.4-0.2-0.7-0.3c-0.2,0-0.4-0.1-0.8-0.1h-1.7v4.8H67.7z M69.1,17.5h3.1c0.7,0,1.2-0.1,1.5-0.2
		c0.4-0.1,0.7-0.4,0.8-0.7c0.2-0.3,0.3-0.6,0.3-1c0-0.5-0.2-0.9-0.6-1.3c-0.4-0.3-1-0.5-1.8-0.5h-3.4V17.5z"/>
	<path class="st0" d="M80.8,23.5V12.6h3.8c0.8,0,1.5,0.1,1.9,0.2c0.6,0.1,1.2,0.4,1.6,0.8c0.6,0.5,1,1.1,1.3,1.9
		c0.3,0.8,0.4,1.6,0.4,2.6c0,0.8-0.1,1.6-0.3,2.2c-0.2,0.6-0.4,1.2-0.7,1.6c-0.3,0.4-0.6,0.7-1,1s-0.8,0.4-1.3,0.5
		c-0.5,0.1-1.1,0.2-1.7,0.2H80.8z M82.2,22.3h2.3c0.7,0,1.3-0.1,1.7-0.2c0.4-0.1,0.7-0.3,1-0.6c0.3-0.3,0.6-0.8,0.8-1.4
		c0.2-0.6,0.3-1.3,0.3-2.1c0-1.1-0.2-2-0.6-2.6c-0.4-0.6-0.8-1-1.4-1.2c-0.4-0.1-1-0.2-1.9-0.2h-2.3V22.3z"/>
	<path class="st0" d="M108,19.7l1.4,0.4c-0.3,1.2-0.8,2.1-1.6,2.7c-0.8,0.6-1.7,0.9-2.9,0.9c-1.2,0-2.1-0.2-2.9-0.7
		c-0.7-0.5-1.3-1.2-1.7-2.1s-0.6-1.9-0.6-2.9c0-1.1,0.2-2.1,0.6-3c0.4-0.8,1-1.5,1.8-1.9c0.8-0.4,1.7-0.7,2.6-0.7
		c1.1,0,2,0.3,2.7,0.8s1.3,1.3,1.6,2.3l-1.4,0.3c-0.3-0.8-0.6-1.4-1.1-1.7s-1.1-0.5-1.8-0.5c-0.8,0-1.5,0.2-2.1,0.6
		c-0.6,0.4-1,0.9-1.2,1.6c-0.2,0.7-0.3,1.4-0.3,2.1c0,0.9,0.1,1.7,0.4,2.4c0.3,0.7,0.7,1.2,1.3,1.5c0.6,0.3,1.2,0.5,1.8,0.5
		c0.8,0,1.5-0.2,2-0.7C107.4,21.3,107.8,20.6,108,19.7z"/>
	<path class="st0" d="M113.4,23.5V12.6h7.9v1.3h-6.4v3.3h6v1.3h-6v3.7h6.7v1.3H113.4z"/>
	<path class="st0" d="M125.6,23.5V12.6h1.5l5.7,8.5v-8.5h1.4v10.9h-1.5L127,15v8.6H125.6z"/>
	<path class="st0" d="M141.5,23.5v-9.6h-3.6v-1.3h8.6v1.3H143v9.6H141.5z"/>
	<path class="st0" d="M150.2,23.5V12.6h4.8c1,0,1.7,0.1,2.2,0.3c0.5,0.2,0.9,0.5,1.2,1c0.3,0.5,0.5,1,0.5,1.6c0,0.8-0.2,1.4-0.8,2
		s-1.3,0.9-2.3,1c0.4,0.2,0.7,0.4,0.9,0.5c0.4,0.4,0.8,0.9,1.2,1.4l1.9,3H158l-1.4-2.3c-0.4-0.7-0.8-1.2-1-1.5
		c-0.3-0.3-0.5-0.6-0.7-0.7c-0.2-0.1-0.4-0.2-0.7-0.3c-0.2,0-0.4-0.1-0.8-0.1h-1.7v4.8H150.2z M151.6,17.5h3.1
		c0.7,0,1.2-0.1,1.5-0.2c0.4-0.1,0.7-0.4,0.8-0.7c0.2-0.3,0.3-0.6,0.3-1c0-0.5-0.2-0.9-0.6-1.3c-0.4-0.3-1-0.5-1.8-0.5h-3.4V17.5z"
		/>
	<path class="st0" d="M163.5,23.5V12.6h1.4v10.9H163.5z"/>
	<path class="st0" d="M177.4,19.7l1.4,0.4c-0.3,1.2-0.8,2.1-1.6,2.7c-0.8,0.6-1.7,0.9-2.9,0.9c-1.2,0-2.1-0.2-2.9-0.7
		c-0.7-0.5-1.3-1.2-1.7-2.1s-0.6-1.9-0.6-2.9c0-1.1,0.2-2.1,0.6-3c0.4-0.8,1-1.5,1.8-1.9c0.8-0.4,1.7-0.7,2.6-0.7
		c1.1,0,2,0.3,2.7,0.8s1.3,1.3,1.6,2.3l-1.4,0.3c-0.3-0.8-0.6-1.4-1.1-1.7s-1.1-0.5-1.8-0.5c-0.8,0-1.5,0.2-2.1,0.6
		c-0.6,0.4-1,0.9-1.2,1.6c-0.2,0.7-0.3,1.4-0.3,2.1c0,0.9,0.1,1.7,0.4,2.4c0.3,0.7,0.7,1.2,1.3,1.5c0.6,0.3,1.2,0.5,1.8,0.5
		c0.8,0,1.5-0.2,2-0.7C176.8,21.3,177.2,20.6,177.4,19.7z"/>
	<path class="st0" d="M189,23.5V12.6h1.4v9.6h5.4v1.3H189z"/>
	<path class="st0" d="M199.9,23.5V12.6h1.4v10.9H199.9z"/>
	<path class="st0" d="M206,23.5V12.6h2.2l2.6,7.7c0.2,0.7,0.4,1.3,0.5,1.6c0.1-0.4,0.3-1,0.6-1.7l2.6-7.6h1.9v10.9H215v-9.1
		l-3.2,9.1h-1.3l-3.1-9.3v9.3H206z"/>
	<path class="st0" d="M221.1,23.5V12.6h1.4v10.9H221.1z"/>
	<path class="st0" d="M230,23.5v-9.6h-3.6v-1.3h8.6v1.3h-3.6v9.6H230z"/>
	<path class="st0" d="M238.7,23.5V12.6h7.9v1.3h-6.4v3.3h6v1.3h-6v3.7h6.7v1.3H238.7z"/>
	<path class="st0" d="M250.9,23.5V12.6h3.8c0.8,0,1.5,0.1,1.9,0.2c0.6,0.1,1.2,0.4,1.6,0.8c0.6,0.5,1,1.1,1.3,1.9
		c0.3,0.8,0.4,1.6,0.4,2.6c0,0.8-0.1,1.6-0.3,2.2c-0.2,0.6-0.4,1.2-0.7,1.6c-0.3,0.4-0.6,0.7-1,1s-0.8,0.4-1.3,0.5
		c-0.5,0.1-1.1,0.2-1.7,0.2H250.9z M252.3,22.3h2.3c0.7,0,1.3-0.1,1.7-0.2c0.4-0.1,0.7-0.3,1-0.6c0.3-0.3,0.6-0.8,0.8-1.4
		c0.2-0.6,0.3-1.3,0.3-2.1c0-1.1-0.2-2-0.6-2.6c-0.4-0.6-0.8-1-1.4-1.2c-0.4-0.1-1-0.2-1.9-0.2h-2.3V22.3z"/>
</g>
<g>
	<g>
		<path class="st1" d="M32.9,34.5H20.3v-8.4c0-2.4-0.1-4-0.4-4.6c-0.3-0.6-0.9-0.9-1.8-0.9c-1,0-1.7,0.4-2,1.1
			c-0.3,0.7-0.4,2.3-0.4,4.8V49c0,2.4,0.1,3.9,0.4,4.6s0.9,1.1,1.9,1.1c0.9,0,1.6-0.4,1.8-1.1c0.3-0.7,0.4-2.4,0.4-5.1v-6.1h12.6
			v1.9c0,5-0.4,8.6-1.1,10.7c-0.7,2.1-2.3,3.9-4.7,5.5c-2.4,1.6-5.4,2.4-9,2.4c-3.7,0-6.7-0.7-9.1-2c-2.4-1.3-4-3.2-4.8-5.5
			C3.5,53,3.2,49.4,3.2,44.7V30.5c0-3.5,0.1-6.1,0.4-7.9c0.2-1.7,1-3.4,2.1-5s2.8-2.9,4.9-3.8c2.1-0.9,4.5-1.4,7.3-1.4
			c3.7,0,6.8,0.7,9.2,2.2c2.4,1.4,4,3.2,4.8,5.4c0.8,2.1,1.1,5.5,1.1,10V34.5z"/>
		<path class="st1" d="M55.6,26.6l5.2,35.2h-9.4L51,55.5h-3.3l-0.6,6.3h-9.5l4.7-35.2H55.6z M50.8,49.3c-0.5-4-0.9-8.9-1.4-14.8
			c-0.9,6.7-1.5,11.7-1.8,14.8H50.8z"/>
		<path class="st1" d="M64.7,26.6h6.5c4.3,0,7.2,0.2,8.8,0.5c1.5,0.3,2.8,1.2,3.7,2.6s1.4,3.6,1.4,6.6c0,2.7-0.3,4.6-1,5.5
			c-0.7,0.9-2,1.5-4,1.7c1.8,0.4,3,1.1,3.7,1.8s1,1.4,1.2,2.1s0.2,2.4,0.2,5.2v9.3h-8.5V50.2c0-1.9-0.1-3.1-0.4-3.5
			c-0.3-0.4-1.1-0.7-2.3-0.7v15.9h-9.2V26.6z M73.8,32.7v7.8c1,0,1.8-0.1,2.2-0.4c0.4-0.3,0.6-1.2,0.6-2.8v-1.9
			c0-1.1-0.2-1.8-0.6-2.2C75.6,32.8,74.9,32.7,73.8,32.7z"/>
		<path class="st1" d="M90.9,26.6h6.9c4.4,0,7.4,0.2,9,0.6c1.6,0.4,2.7,1.1,3.6,2c0.8,0.9,1.3,2,1.5,3.1c0.2,1.1,0.3,3.4,0.3,6.7
			v12.3c0,3.2-0.1,5.3-0.4,6.3c-0.3,1.1-0.8,1.9-1.6,2.5c-0.7,0.6-1.7,1-2.7,1.3c-1.1,0.2-2.7,0.4-4.9,0.4H90.9V26.6z M100,32.7
			v23.2c1.3,0,2.1-0.3,2.4-0.8c0.3-0.5,0.5-2,0.5-4.3V37c0-1.6-0.1-2.6-0.2-3.1c-0.1-0.4-0.3-0.8-0.7-1
			C101.7,32.8,101,32.7,100,32.7z"/>
		<path class="st1" d="M149.2,42H140v-6.1c0-1.8-0.1-2.9-0.3-3.3s-0.6-0.7-1.3-0.7c-0.8,0-1.2,0.3-1.4,0.8c-0.2,0.5-0.3,1.7-0.3,3.5
			v16.4c0,1.7,0.1,2.8,0.3,3.4s0.7,0.8,1.4,0.8c0.7,0,1.1-0.3,1.3-0.8c0.2-0.5,0.3-1.8,0.3-3.7v-4.4h9.2v1.4c0,3.6-0.3,6.2-0.8,7.8
			c-0.5,1.5-1.7,2.9-3.4,4c-1.8,1.1-3.9,1.7-6.5,1.7c-2.7,0-4.9-0.5-6.6-1.5c-1.7-1-2.9-2.3-3.5-4c-0.6-1.7-0.8-4.3-0.8-7.8V39.1
			c0-2.5,0.1-4.4,0.3-5.7c0.2-1.3,0.7-2.5,1.6-3.7c0.9-1.2,2.1-2.1,3.6-2.8c1.5-0.7,3.3-1,5.3-1c2.7,0,4.9,0.5,6.7,1.6
			c1.8,1,2.9,2.3,3.5,3.9s0.8,4,0.8,7.3V42z"/>
		<path class="st1" d="M154.7,26.6H170v7h-6.1v6.7h5.7v6.7h-5.7v7.7h6.7v7h-15.9V26.6z"/>
		<path class="st1" d="M195.9,26.6v35.2h-8l-4.8-16v16h-7.7V26.6h7.7l5.1,15.9V26.6H195.9z"/>
		<path class="st1" d="M220.2,26.6v7h-5.4v28.2h-9.2V33.7h-5.4v-7H220.2z"/>
		<path class="st1" d="M224.6,26.6h6.5c4.3,0,7.2,0.2,8.8,0.5c1.5,0.3,2.8,1.2,3.7,2.6s1.4,3.6,1.4,6.6c0,2.7-0.3,4.6-1,5.5
			c-0.7,0.9-2,1.5-4,1.7c1.8,0.4,3,1.1,3.7,1.8s1,1.4,1.2,2.1s0.2,2.4,0.2,5.2v9.3h-8.5V50.2c0-1.9-0.1-3.1-0.4-3.5
			c-0.3-0.4-1.1-0.7-2.3-0.7v15.9h-9.2V26.6z M233.7,32.7v7.8c1,0,1.8-0.1,2.2-0.4c0.4-0.3,0.6-1.2,0.6-2.8v-1.9
			c0-1.1-0.2-1.8-0.6-2.2C235.5,32.8,234.8,32.7,233.7,32.7z"/>
		<path class="st1" d="M259.9,26.6v35.2h-9.2V26.6H259.9z"/>
		<path class="st1" d="M295.9,34.5h-12.6v-8.4c0-2.4-0.1-4-0.4-4.6c-0.3-0.6-0.9-0.9-1.8-0.9c-1,0-1.7,0.4-2,1.1
			c-0.3,0.7-0.4,2.3-0.4,4.8V49c0,2.4,0.1,3.9,0.4,4.6s0.9,1.1,1.9,1.1c0.9,0,1.6-0.4,1.8-1.1c0.3-0.7,0.4-2.4,0.4-5.1v-6.1h12.6
			v1.9c0,5-0.4,8.6-1.1,10.7c-0.7,2.1-2.3,3.9-4.7,5.5c-2.4,1.6-5.4,2.4-9,2.4c-3.7,0-6.7-0.7-9.1-2c-2.4-1.3-4-3.2-4.8-5.5
			c-0.8-2.4-1.2-5.9-1.2-10.7V30.5c0-3.5,0.1-6.1,0.4-7.9c0.2-1.7,1-3.4,2.1-5s2.8-2.9,4.9-3.8c2.1-0.9,4.5-1.4,7.3-1.4
			c3.7,0,6.8,0.7,9.2,2.2c2.4,1.4,4,3.2,4.8,5.4c0.8,2.1,1.1,5.5,1.1,10V34.5z"/>
	</g>
</g>
</svg>
