<?xml version="1.0" encoding="utf-8"?>
<!-- Generator: Adobe Illustrator 22.1.0, SVG Export Plug-In . SVG Version: 6.00 Build 0)  -->
<svg version="1.1" id="Layer_1" xmlns="http://www.w3.org/2000/svg" xmlns:xlink="http://www.w3.org/1999/xlink" x="0px" y="0px"
	 viewBox="0 0 290 50" style="enable-background:new 0 0 290 50;" xml:space="preserve">
<style type="text/css">
	.st0{fill:#515151;}
	.st1{fill:#FA4343;}
</style>
<g>
	<path class="st0" d="M46.3,7.2l1.4,0.4c-0.3,1.2-0.8,2.1-1.6,2.7c-0.8,0.6-1.7,0.9-2.9,0.9c-1.2,0-2.1-0.2-2.9-0.7
		c-0.7-0.5-1.3-1.2-1.7-2.1s-0.6-1.9-0.6-2.9c0-1.1,0.2-2.1,0.6-3c0.4-0.8,1-1.5,1.8-1.9C41.3,0.3,42.2,0,43.1,0
		c1.1,0,2,0.3,2.7,0.8s1.3,1.3,1.6,2.3l-1.1,0.5c-0.3-0.8-0.6-1.4-1.1-1.7s-1.1-0.5-1.8-0.5c-0.8,0-1.5,0.2-2.1,0.6
		c-0.6,0.4-1,0.9-1.2,1.6S39.8,5,39.8,5.6c0,0.9,0.1,1.7,0.4,2.4c0.3,0.7,0.7,1.2,1.3,1.5c0.6,0.3,1.2,0.5,1.8,0.5
		c0.8,0,1.5-0.2,2-0.7C45.8,8.8,46.1,8.1,46.3,7.2z"/>
	<path class="st0" d="M50.5,11l4.2-10.8h1.6L60.7,11h-1.6l-1.3-3.3h-4.6L52.1,11H50.5z M53.6,6.6h3.7l-1.1-3
		c-0.3-0.9-0.6-1.7-0.8-2.3c-0.1,0.7-0.3,1.4-0.6,2.1L53.6,6.6z"/>
	<path class="st0" d="M63.9,11V0.2h4.8c1,0,1.7,0.1,2.2,0.3s0.9,0.5,1.2,1s0.5,1,0.5,1.6c0,0.8-0.2,1.4-0.8,2s-1.3,0.9-2.3,1
		c0.4,0.2,0.7,0.4,0.9,0.5c0.4,0.4,0.8,0.9,1.2,1.4l1.9,3h-1.8l-1.5-2.1c-0.4-0.7-0.8-1.2-1-1.5c-0.3-0.3-0.5-0.6-0.7-0.7
		c-0.2-0.1-0.4-0.2-0.7-0.3c-0.2,0-0.4-0.1-0.8-0.1h-1.7V11H63.9z M65.2,5h3.1C69,5,69.5,5,69.8,4.9c0.4-0.1,0.7-0.4,0.8-0.7
		c0.2-0.3,0.3-0.6,0.3-1c0-0.5-0.2-0.9-0.6-1.3c-0.4-0.3-1-0.5-1.8-0.5h-3.4L65.2,5L65.2,5z"/>
	<path class="st0" d="M76.8,11V0.2h3.8c0.8,0,1.5,0.1,1.9,0.2c0.6,0.1,1.2,0.4,1.6,0.8c0.6,0.5,1,1.1,1.3,1.9s0.4,1.6,0.4,2.6
		c0,0.8-0.1,1.6-0.3,2.2C85.2,8.4,85,9,84.8,9.4c-0.3,0.4-0.6,0.7-1,1c-0.4,0.3-0.8,0.4-1.3,0.5c-0.5,0.1-1.1,0.2-1.7,0.2L76.8,11
		L76.8,11z M78.2,9.8h2.3c0.7,0,1.3-0.1,1.7-0.2c0.4-0.1,0.7-0.3,1-0.6c0.3-0.3,0.6-0.8,0.8-1.4c0.2-0.6,0.3-1.3,0.3-2.1
		c0-1.1-0.2-2-0.6-2.6s-0.8-1-1.4-1.2c-0.4-0.1-1-0.2-1.9-0.2h-2.3L78.2,9.8L78.2,9.8z"/>
	<path class="st0" d="M103.8,7.2l1.4,0.4c-0.3,1.2-0.8,2.1-1.6,2.7s-1.7,0.9-2.9,0.9c-1.2,0-2.1-0.2-2.9-0.7
		c-0.7-0.5-1.3-1.2-1.7-2.1s-0.6-1.9-0.6-2.9c0-1.1,0.2-2.1,0.6-3c0.4-0.8,1-1.5,1.8-1.9c0.8-0.4,1.7-0.7,2.6-0.7
		c1.1,0,2,0.3,2.7,0.8c0.7,0.5,1.3,1.3,1.6,2.3l-1.4,0.3c-0.3-0.8-0.6-1.4-1.1-1.7c-0.5-0.3-1.1-0.5-1.8-0.5c-0.8,0-1.5,0.2-2.1,0.6
		c-0.6,0.4-1,0.9-1.2,1.6c-0.2,0.7-0.3,1.4-0.3,2.1c0,0.9,0.1,1.7,0.4,2.4C97.6,8.5,98,9,98.6,9.3c0.6,0.3,1.2,0.5,1.8,0.5
		c0.8,0,1.5-0.2,2-0.7C103.2,8.8,103.6,8.1,103.8,7.2z"/>
	<path class="st0" d="M109.1,11V0.2h7.8v1.3h-6.3v3.3h5.9V6h-5.9v3.7h6.6V11H109.1z"/>
	<path class="st0" d="M121.2,11V0.2h1.5l5.6,8.4V0.2h1.4V11h-1.5l-5.6-8.4v8.5L121.2,11L121.2,11z"/>
	<path class="st0" d="M136.9,11V1.5h-3.6V0.2h8.5v1.3h-3.5V11H136.9z"/>
	<path class="st0" d="M145.5,11V0.2h4.8c1,0,1.7,0.1,2.2,0.3c0.5,0.2,0.9,0.5,1.2,1s0.5,1,0.5,1.6c0,0.8-0.2,1.4-0.8,2
		c-0.6,0.6-1.3,0.9-2.3,1c0.4,0.2,0.7,0.4,0.9,0.5c0.4,0.4,0.8,0.9,1.2,1.4l1.9,3h-1.8l-1.4-2.3c-0.4-0.7-0.8-1.2-1-1.5
		c-0.3-0.3-0.5-0.6-0.7-0.7c-0.2-0.1-0.4-0.2-0.7-0.3c-0.2,0-0.4-0.1-0.8-0.1H147v4.8h-1.5V11z M146.9,5h3.1c0.7,0,1.2-0.1,1.5-0.2
		c0.4-0.1,0.7-0.4,0.8-0.7c0.2-0.3,0.3-0.6,0.3-1c0-0.5-0.2-0.9-0.6-1.3c-0.4-0.3-1-0.5-1.8-0.5h-3.4L146.9,5L146.9,5z"/>
	<path class="st0" d="M158.7,11V0.2h1.4V11H158.7z"/>
	<path class="st0" d="M172.5,7.2l1.4,0.4c-0.3,1.2-0.8,2.1-1.6,2.7s-1.7,0.9-2.9,0.9s-2.1-0.2-2.9-0.7c-0.7-0.5-1.3-1.2-1.7-2.1
		c-0.4-0.9-0.6-1.9-0.6-2.9c0-1.1,0.2-2.1,0.6-3c0.4-0.8,1-1.5,1.8-1.9s1.7-0.7,2.6-0.7c1.1,0,2,0.3,2.7,0.8
		c0.7,0.5,1.3,1.3,1.6,2.3l-1.4,0.3c-0.3-0.8-0.6-1.4-1.1-1.7c-0.5-0.3-1.1-0.5-1.8-0.5c-0.8,0-1.5,0.2-2.1,0.6
		c-0.6,0.4-1,0.9-1.2,1.6c-0.2,0.7-0.3,1.4-0.3,2.1c0,0.9,0.1,1.7,0.4,2.4c0.3,0.7,0.7,1.2,1.3,1.5c0.6,0.3,1.2,0.5,1.8,0.5
		c0.8,0,1.5-0.2,2-0.7C171.9,8.8,172.3,8.1,172.5,7.2z"/>
	<path class="st0" d="M184,11V0.2h1.4v9.5h5.3V11H184z"/>
	<path class="st0" d="M194.8,11V0.2h1.4V11H194.8z"/>
	<path class="st0" d="M200.8,11V0.2h2.2l2.6,7.6c0.2,0.7,0.4,1.3,0.5,1.6c0.1-0.4,0.3-1,0.6-1.7l2.6-7.5h1.9V11h-1.4V2l-3.2,9h-1.3
		l-3.1-9.2V11C202.2,11,200.8,11,200.8,11z"/>
	<path class="st0" d="M215.7,11V0.2h1.4V11H215.7z"/>
	<path class="st0" d="M224.6,11V1.5H221V0.2h8.5v1.3h-3.6V11H224.6z"/>
	<path class="st0" d="M233.2,11V0.2h7.8v1.3h-6.3v3.3h5.9V6h-5.9v3.7h6.6V11H233.2z"/>
	<path class="st0" d="M245.2,11V0.2h3.8c0.8,0,1.5,0.1,1.9,0.2c0.6,0.1,1.2,0.4,1.6,0.8c0.6,0.5,1,1.1,1.3,1.9
		c0.3,0.8,0.4,1.6,0.4,2.6c0,0.8-0.1,1.6-0.3,2.2c-0.2,0.6-0.4,1.2-0.7,1.6c-0.3,0.4-0.6,0.7-1,1c-0.4,0.3-0.8,0.4-1.3,0.5
		c-0.5,0.1-1.1,0.2-1.7,0.2L245.2,11L245.2,11z M246.6,9.8h2.3c0.7,0,1.3-0.1,1.7-0.2c0.4-0.1,0.7-0.3,1-0.6
		c0.3-0.3,0.6-0.8,0.8-1.4c0.2-0.6,0.3-1.3,0.3-2.1c0-1.1-0.2-2-0.6-2.6c-0.4-0.6-0.8-1-1.4-1.2c-0.4-0.1-1-0.2-1.9-0.2h-2.3
		L246.6,9.8L246.6,9.8z"/>
</g>
<g>
	<g>
		<path class="st1" d="M29.4,21.9H16.9v-8.3c0-2.4-0.1-4-0.4-4.6c-0.3-0.6-0.9-0.9-1.8-0.9c-1,0-1.7,0.4-2,1.1s-0.4,2.3-0.4,4.8
			v22.3c0,2.4,0.1,3.9,0.4,4.6c0.3,0.7,0.9,1.1,1.9,1.1c0.9,0,1.6-0.4,1.8-1.1c0.3-0.7,0.4-2.4,0.4-5v-6h12.5v1.9
			c0,5-0.4,8.5-1.1,10.6c-0.7,2.1-2.3,3.9-4.7,5.4S18.2,50,14.7,50c-3.7,0-6.6-0.7-9-2s-4-3.2-4.8-5.4C0.3,40.2,0,36.6,0,32V17.9
			c0-3.5,0.1-6,0.4-7.8c0.2-1.7,1-3.4,2.1-5s2.8-2.9,4.9-3.8C9.4,0.5,11.8,0,14.6,0c3.7,0,6.7,0.7,9.1,2.2c2.4,1.4,4,3.2,4.8,5.3
			c0.8,2.1,1.1,5.4,1.1,9.9L29.4,21.9L29.4,21.9z"/>
		<path class="st1" d="M51.9,14.1L57,48.9h-9.3l-0.4-6.2h-3.3l-0.6,6.2h-9.4l4.7-34.9C38.7,14.1,51.9,14.1,51.9,14.1z M47.1,36.5
			c-0.5-4-0.9-8.8-1.4-14.7c-0.9,6.6-1.5,11.6-1.8,14.7H47.1z"/>
		<path class="st1" d="M60.9,14.1h6.4c4.3,0,7.1,0.2,8.7,0.5c1.5,0.3,2.8,1.2,3.7,2.6s1.4,3.6,1.4,6.5c0,2.7-0.3,4.6-1,5.4
			c-0.7,0.9-2,1.5-4,1.7c1.8,0.4,3,1.1,3.7,1.8c0.7,0.7,1,1.4,1.2,2.1c0.2,0.7,0.2,2.4,0.2,5.1V49h-8.4V37.4c0-1.9-0.1-3.1-0.4-3.5
			c-0.3-0.4-1.1-0.7-2.3-0.7V49H61L60.9,14.1L60.9,14.1z M69.9,20.1v7.7c1,0,1.8-0.1,2.2-0.4c0.4-0.3,0.6-1.2,0.6-2.8v-1.9
			c0-1.1-0.2-1.8-0.6-2.2C71.7,20.2,71,20.1,69.9,20.1z"/>
		<path class="st1" d="M86.8,14.1h6.8c4.4,0,7.3,0.2,8.9,0.6c1.6,0.4,2.7,1.1,3.6,2c0.8,0.9,1.3,2,1.5,3.1c0.2,1.1,0.3,3.4,0.3,6.6
			v12.2c0,3.2-0.1,5.2-0.4,6.2c-0.3,1.1-0.8,1.9-1.6,2.5c-0.7,0.6-1.7,1-2.7,1.3c-1.1,0.2-2.7,0.4-4.9,0.4H86.8V14.1z M95.8,20.1v23
			c1.3,0,2.1-0.3,2.4-0.8c0.3-0.5,0.5-2,0.5-4.3V24.4c0-1.6-0.1-2.6-0.2-3.1c-0.1-0.4-0.3-0.8-0.7-1C97.5,20.2,96.8,20.1,95.8,20.1z
			"/>
		<path class="st1" d="M144.6,29.3h-9.1v-6c0-1.8-0.1-2.9-0.3-3.3s-0.6-0.7-1.3-0.7c-0.8,0-1.2,0.3-1.4,0.8
			c-0.2,0.5-0.3,1.7-0.3,3.5v16.2c0,1.7,0.1,2.8,0.3,3.4s0.7,0.8,1.4,0.8c0.7,0,1.1-0.3,1.3-0.8s0.3-1.8,0.3-3.7v-4.4h9.1v1.4
			c0,3.6-0.3,6.1-0.8,7.7c-0.5,1.5-1.7,2.9-3.4,4c-1.8,1.1-3.9,1.7-6.4,1.7c-2.7,0-4.9-0.5-6.5-1.5c-1.7-1-2.9-2.3-3.5-4
			s-0.8-4.3-0.8-7.7V26.4c0-2.5,0.1-4.4,0.3-5.6c0.2-1.3,0.7-2.5,1.6-3.7c0.9-1.2,2.1-2.1,3.6-2.8c1.5-0.7,3.3-1,5.2-1
			c2.7,0,4.9,0.5,6.6,1.6c1.8,1,2.9,2.3,3.5,3.9c0.6,1.6,0.8,4,0.8,7.2v3.3H144.6z"/>
		<path class="st1" d="M150,14.1h15.1V21h-6v6.6h5.6v6.6h-5.6v7.6h6.6v6.9H150V14.1z"/>
		<path class="st1" d="M190.8,14.1v34.9h-7.9l-4.8-15.8v15.8h-7.6V14.1h7.6l5,15.7V14.1H190.8z"/>
		<path class="st1" d="M214.9,14.1V21h-5.3v27.9h-9.1V21.1H195v-6.9L214.9,14.1L214.9,14.1z"/>
		<path class="st1" d="M219.2,14.1h6.4c4.3,0,7.1,0.2,8.7,0.5c1.5,0.3,2.8,1.2,3.7,2.6s1.4,3.6,1.4,6.5c0,2.7-0.3,4.6-1,5.4
			c-0.7,0.9-2,1.5-4,1.7c1.8,0.4,3,1.1,3.7,1.8s1,1.4,1.2,2.1c0.2,0.7,0.2,2.4,0.2,5.1V49h-8.4V37.4c0-1.9-0.1-3.1-0.4-3.5
			s-1.1-0.7-2.3-0.7V49h-9.1L219.2,14.1L219.2,14.1z M228.2,20.1v7.7c1,0,1.8-0.1,2.2-0.4c0.4-0.3,0.6-1.2,0.6-2.8v-1.9
			c0-1.1-0.2-1.8-0.6-2.2C230,20.2,229.3,20.1,228.2,20.1z"/>
		<path class="st1" d="M254.2,14.1v34.9H245V14.1H254.2z"/>
		<path class="st1" d="M289.8,21.9h-12.5v-8.3c0-2.4-0.1-4-0.4-4.6c-0.3-0.6-0.9-0.9-1.8-0.9c-1,0-1.7,0.4-2,1.1
			c-0.3,0.7-0.4,2.3-0.4,4.8v22.3c0,2.4,0.1,3.9,0.4,4.6c0.3,0.7,0.9,1.1,1.9,1.1c0.9,0,1.6-0.4,1.8-1.1c0.3-0.7,0.4-2.4,0.4-5v-6
			h12.5v1.9c0,5-0.4,8.5-1.1,10.6c-0.7,2.1-2.3,3.9-4.7,5.4c-2.4,1.6-5.3,2.4-8.9,2.4c-3.7,0-6.6-0.7-9-2c-2.4-1.3-4-3.2-4.8-5.4
			c-0.8-2.4-1.2-5.8-1.2-10.6V17.9c0-3.5,0.1-6,0.4-7.8c0.2-1.7,1-3.4,2.1-5s2.8-2.9,4.9-3.8c2.1-0.9,4.5-1.4,7.2-1.4
			c3.7,0,6.7,0.7,9.1,2.2c2.4,1.4,4,3.2,4.8,5.3c0.8,2.1,1.1,5.4,1.1,9.9v4.5H289.8z"/>
	</g>
</g>
</svg>
