<?xml version="1.0" encoding="utf-8"?>
<!-- Generator: Adobe Illustrator 22.1.0, SVG Export Plug-In . SVG Version: 6.00 Build 0)  -->
<svg version="1.1" id="Layer_1" xmlns="http://www.w3.org/2000/svg" xmlns:xlink="http://www.w3.org/1999/xlink" x="0px" y="0px"
	 viewBox="0 0 16 16" style="enable-background:new 0 0 16 16;" xml:space="preserve">
<style type="text/css">
	.st0{fill:#FA4343;}
	.st1{fill:#272235;}
</style>
<path class="st0" d="M8,0C3.6,0,0,3.6,0,8s3.6,8,8,8s8-3.6,8-8S12.4,0,8,0z M8,14.7c-3.7,0-6.7-3-6.7-6.7s3-6.7,6.7-6.7
	s6.7,3,6.7,6.7S11.7,14.7,8,14.7z"/>
<g>
	<path class="st1" d="M10.9,5H5.3C5.1,5,4.8,5.1,4.7,5.4L3.1,8l1.7,2.6C4.8,10.9,5.1,11,5.3,11h5.6c0.4,0,0.7-0.3,0.7-0.7V5.8
		C11.7,5.3,11.3,5,10.9,5L10.9,5z M9.7,9.2c0.1,0.1,0.1,0.4,0,0.5C9.6,9.8,9.5,9.9,9.4,9.9c-0.1,0-0.2,0-0.3-0.1L7.9,8.5L6.7,9.8
		C6.6,9.8,6.5,9.9,6.4,9.9c-0.1,0-0.2,0-0.3-0.1C6,9.6,6,9.4,6.2,9.2L7.4,8L6.2,6.8C6,6.6,6,6.4,6.2,6.2c0.1-0.1,0.4-0.1,0.5,0
		l1.2,1.2l1.2-1.2c0.1-0.1,0.4-0.1,0.5,0c0.1,0.1,0.1,0.4,0,0.5L8.4,8L9.7,9.2z"/>
</g>
</svg>
