<?xml version="1.0" encoding="utf-8"?>
<!-- Generator: Adobe Illustrator 22.1.0, SVG Export Plug-In . SVG Version: 6.00 Build 0)  -->
<svg version="1.1" id="Layer_1" xmlns="http://www.w3.org/2000/svg" xmlns:xlink="http://www.w3.org/1999/xlink" x="0px" y="0px"
	 viewBox="0 0 16 16" style="enable-background:new 0 0 16 16;" xml:space="preserve">
<style type="text/css">
	.st0{fill:#FA4343;}
	.st1{fill:#272235;}
</style>
<path class="st0" d="M8,0C3.6,0,0,3.6,0,8s3.6,8,8,8s8-3.6,8-8S12.4,0,8,0z M8,14.7c-3.7,0-6.7-3-6.7-6.7s3-6.7,6.7-6.7
	s6.7,3,6.7,6.7S11.7,14.7,8,14.7z"/>
<path class="st1" d="M10.8,9.1v1.8H5.2V9.1h-1v2.3c0,0.3,0.2,0.5,0.5,0.5h6.6c0.3,0,0.5-0.2,0.5-0.5V9.1H10.8z"/>
<path class="st1" d="M7.9,8.9L6.4,7.1c0,0-0.2-0.2,0-0.2h0.9V4.2c0,0,0-0.1,0.2-0.1h1.2c0.1,0,0.1,0.1,0.1,0.1v2.7h0.8
	c0.3,0,0,0.2,0,0.2S8.3,8.7,8.2,8.9C8,9.1,7.9,8.9,7.9,8.9L7.9,8.9z"/>
</svg>
