<?xml version="1.0" encoding="utf-8"?>
<!-- Generator: Adobe Illustrator 22.1.0, SVG Export Plug-In . SVG Version: 6.00 Build 0)  -->
<svg version="1.1"
	 id="svg7384" inkscape:export-filename="/home/sam/dev/RESOURCES/gnome-icon-theme-symbolic/src/gnome-stencils.png" inkscape:export-xdpi="90" inkscape:export-ydpi="90" inkscape:version="0.92pre3 r" sodipodi:docname="document-send-symbolic.svg" xmlns:cc="http://creativecommons.org/ns#" xmlns:dc="http://purl.org/dc/elements/1.1/" xmlns:inkscape="http://www.inkscape.org/namespaces/inkscape" xmlns:osb="http://www.openswatchbook.org/uri/2009/osb" xmlns:rdf="http://www.w3.org/1999/02/22-rdf-syntax-ns#" xmlns:sodipodi="http://sodipodi.sourceforge.net/DTD/sodipodi-0.dtd" xmlns:svg="http://www.w3.org/2000/svg"
	 xmlns="http://www.w3.org/2000/svg" xmlns:xlink="http://www.w3.org/1999/xlink" x="0px" y="0px" viewBox="0 0 16 16"
	 style="enable-background:new 0 0 16 16;" xml:space="preserve">
<style type="text/css">
	.st0{fill:#BEBEBE;}
</style>
<g id="svg7384" inkscape:export-filename="/home/sam/dev/RESOURCES/gnome-icon-theme-symbolic/src/gnome-stencils.png" inkscape:export-xdpi="90" inkscape:export-ydpi="90" inkscape:version="0.92pre3 r" sodipodi:docname="document-send-symbolic.svg" xmlns:cc="http://creativecommons.org/ns#" xmlns:dc="http://purl.org/dc/elements/1.1/" xmlns:inkscape="http://www.inkscape.org/namespaces/inkscape" xmlns:osb="http://www.openswatchbook.org/uri/2009/osb" xmlns:rdf="http://www.w3.org/1999/02/22-rdf-syntax-ns#" xmlns:sodipodi="http://sodipodi.sourceforge.net/DTD/sodipodi-0.dtd" xmlns:svg="http://www.w3.org/2000/svg">
	<g>
		<path id="path9920_7_" inkscape:connector-curvature="0" class="st0" d="M2.9,1c-0.6,0-1,0.4-1,1v13c0,0.6,0.4,1,1,1h2
			c0.6,0,1-0.4,1-1c0-0.6-0.4-1-1-1c0,0,0,0,0,0h-1V3h5.6l2.4,2.4V14h-3v-2v-1.6l0.3,0.3C9.4,10.9,9.7,11,9.9,11h1v-1
			c0-0.3-0.1-0.5-0.3-0.7L7.9,6.6L5.2,9.3C5,9.5,4.9,9.7,4.9,10v1h1c0.3,0,0.5-0.1,0.7-0.3c0,0,0,0,0,0l0.3-0.3V12v3
			c0,0.6,0.4,1,1,1h5c0.6,0,1-0.4,1-1V5c0-0.3-0.1-0.5-0.3-0.7l-3-3C10.5,1.1,10.2,1,9.9,1H2.9z"/>
	</g>
	<g>
		<path id="path9920_6_" inkscape:connector-curvature="0" class="st0" d="M2.9,1c-0.6,0-1,0.4-1,1v13c0,0.6,0.4,1,1,1h2
			c0.6,0,1-0.4,1-1c0-0.6-0.4-1-1-1c0,0,0,0,0,0h-1V3h5.6l2.4,2.4V14h-3v-2v-1.6l0.3,0.3C9.4,10.9,9.7,11,9.9,11h1v-1
			c0-0.3-0.1-0.5-0.3-0.7L7.9,6.6L5.2,9.3C5,9.5,4.9,9.7,4.9,10v1h1c0.3,0,0.5-0.1,0.7-0.3c0,0,0,0,0,0l0.3-0.3V12v3
			c0,0.6,0.4,1,1,1h5c0.6,0,1-0.4,1-1V5c0-0.3-0.1-0.5-0.3-0.7l-3-3C10.5,1.1,10.2,1,9.9,1H2.9z"/>
	</g>
</g>
</svg>
