<?xml version="1.0" encoding="utf-8"?>
<!-- Generator: Adobe Illustrator 22.1.0, SVG Export Plug-In . SVG Version: 6.00 Build 0)  -->
<svg version="1.1"
	 id="svg7384" xmlns:cc="http://creativecommons.org/ns#" xmlns:dc="http://purl.org/dc/elements/1.1/" xmlns:osb="http://www.openswatchbook.org/uri/2009/osb" xmlns:rdf="http://www.w3.org/1999/02/22-rdf-syntax-ns#"
	 xmlns="http://www.w3.org/2000/svg" xmlns:xlink="http://www.w3.org/1999/xlink" x="0px" y="0px" viewBox="0 0 16 16"
	 style="enable-background:new 0 0 16 16;" xml:space="preserve">
<style type="text/css">
	.st0{fill:#BEBEBE;}
</style>
<path id="path9737" class="st0" d="M3,1C2.4,1,2,1.4,2,2v13c0,0.6,0.4,1,1,1h10c0.6,0,1-0.4,1-1v-4c0-1.3-0.8-2.3-1.6-2.6
	C11.7,8,11,8,11,8H9.4l0.3-0.3c0,0,0,0,0,0C9.9,7.5,10,7.3,10,7V6H9C8.7,6,8.5,6.1,8.3,6.3L5.6,9l2.7,2.7C8.5,11.9,8.7,12,9,12h1v-1
	c0-0.3-0.1-0.5-0.3-0.7L9.4,10H11c0,0,0.3,0,0.6,0.1c0.3,0.1,0.4,0.2,0.4,0.9v3H4V3h5.6L12,5.4V6c0,0.6,0.4,1,1,1c0.6,0,1-0.4,1-1
	c0,0,0,0,0,0V5c0-0.3-0.1-0.5-0.3-0.7l-3-3C10.5,1.1,10.3,1,10,1L3,1z"/>
</svg>
