<?xml version="1.0" encoding="utf-8"?>
<!-- Generator: Adobe Illustrator 22.1.0, SVG Export Plug-In . SVG Version: 6.00 Build 0)  -->
<svg version="1.1"
	 id="svg7384" xmlns:cc="http://creativecommons.org/ns#" xmlns:dc="http://purl.org/dc/elements/1.1/" xmlns:rdf="http://www.w3.org/1999/02/22-rdf-syntax-ns#"
	 xmlns="http://www.w3.org/2000/svg" xmlns:xlink="http://www.w3.org/1999/xlink" x="0px" y="0px" viewBox="0 0 16 16"
	 style="enable-background:new 0 0 16 16;" xml:space="preserve">
<style type="text/css">
	.st0{fill:#BEBEBE;}
</style>
<path id="path3613" class="st0" d="M7,1v5.6L5.7,5.3C5.5,5.1,5.3,5,5,5H4v1c0,0.3,0.1,0.5,0.3,0.7l3,3L7.6,10h0.9l0.3-0.3l3-3
	C11.9,6.5,12,6.3,12,6V5h-1c-0.3,0-0.5,0.1-0.7,0.3L9,6.6V1H7z"/>
<path id="rect4390-9" class="st0" d="M4.4,9C4.3,9,4.2,9.1,4.1,9.2l-1,1.5c-0.2,0.2-0.2,0.5,0,0.7c0.2,0.2,0.5,0.2,0.7,0
	c0,0,0.1-0.1,0.1-0.1l1-1.5C5.1,9.6,5,9.2,4.8,9.1C4.7,9,4.5,9,4.4,9z M11.4,9C11.1,9.1,11,9.3,11,9.6c0,0.1,0,0.1,0.1,0.2l1,1.5
	c0.1,0.2,0.4,0.4,0.7,0.2s0.4-0.4,0.2-0.7c0,0-0.1-0.1-0.1-0.1l-1-1.5C11.8,9.1,11.6,9,11.4,9z"/>
<path id="rect11668-7-5" class="st0" d="M3,11v4h10v-4H3z M6.3,12.4C6.4,12.4,6.4,12.4,6.3,12.4C6.7,12.4,7,12.6,7,12.9V13h2v-0.1
	c0-0.3,0.2-0.5,0.5-0.5s0.5,0.2,0.5,0.5V13c0,0.5-0.5,1-1,1H7c-0.5,0-1-0.5-1-1v-0.1C6,12.7,6.1,12.5,6.3,12.4z"/>
</svg>
