<?xml version="1.0" encoding="utf-8"?>
<!-- Generator: Adobe Illustrator 22.1.0, SVG Export Plug-In . SVG Version: 6.00 Build 0)  -->
<svg version="1.1" id="Layer_1" xmlns="http://www.w3.org/2000/svg" xmlns:xlink="http://www.w3.org/1999/xlink" x="0px" y="0px"
	 viewBox="0 0 16 16" style="enable-background:new 0 0 16 16;" xml:space="preserve">
<g>
	<path d="M0,14h1v1H0V14z M15.2,7.5L7.7,15H3.5l-2.6-2.6c-0.1-0.1-0.2-0.3-0.3-0.4s-0.1-0.3-0.1-0.5s0-0.4,0.1-0.5s0.2-0.3,0.3-0.4
		l8.6-8.6L15.2,7.5z M7.8,13.5L3.5,9.2l-1.9,1.9c-0.1,0.1-0.1,0.2-0.1,0.3s0,0.2,0.1,0.3L4,14h3.3L7.8,13.5z M9.5,3.2L4.2,8.5
		l4.3,4.3l5.3-5.3L9.5,3.2z M9.1,15l0.9-0.9V15H9.1z M11,14h1v1h-1V14z M13,14h1v1h-1V14z M16,14v1h-1v-1H16z"/>
</g>
</svg>
