<?xml version="1.0" encoding="utf-8"?>
<!-- Generator: Adobe Illustrator 22.1.0, SVG Export Plug-In . SVG Version: 6.00 Build 0)  -->
<svg version="1.1" id="Layer_1" xmlns="http://www.w3.org/2000/svg" xmlns:xlink="http://www.w3.org/1999/xlink" x="0px" y="0px"
	 viewBox="0 0 16 16" style="enable-background:new 0 0 16 16;" xml:space="preserve">
<g>
	<path d="M16,2v10H5.7L2,15.7V12H0V2H16z M15,3H1v8h2v2.3L5.3,11H15V3z M4,8C3.9,8,3.7,8,3.6,7.9C3.5,7.9,3.4,7.8,3.3,7.7
		C3.2,7.6,3.1,7.5,3.1,7.4C3,7.3,3,7.1,3,7s0-0.3,0.1-0.4c0.1-0.1,0.1-0.2,0.2-0.3c0.1-0.1,0.2-0.2,0.3-0.2C3.7,6,3.9,6,4,6
		s0.3,0,0.4,0.1c0.1,0.1,0.2,0.1,0.3,0.2c0.1,0.1,0.2,0.2,0.2,0.3C5,6.7,5,6.9,5,7s0,0.3-0.1,0.4C4.9,7.5,4.8,7.6,4.7,7.7
		C4.6,7.8,4.5,7.9,4.4,7.9C4.3,8,4.1,8,4,8z M8,8C7.9,8,7.7,8,7.6,7.9C7.5,7.9,7.4,7.8,7.3,7.7C7.2,7.6,7.1,7.5,7.1,7.4
		C7,7.3,7,7.1,7,7s0-0.3,0.1-0.4c0.1-0.1,0.1-0.2,0.2-0.3c0.1-0.1,0.2-0.2,0.3-0.2C7.7,6,7.9,6,8,6s0.3,0,0.4,0.1
		c0.1,0.1,0.2,0.1,0.3,0.2c0.1,0.1,0.2,0.2,0.2,0.3C9,6.7,9,6.9,9,7s0,0.3-0.1,0.4C8.9,7.5,8.8,7.6,8.7,7.7C8.6,7.8,8.5,7.9,8.4,7.9
		C8.3,8,8.1,8,8,8z M12,8c-0.1,0-0.3,0-0.4-0.1c-0.1-0.1-0.2-0.1-0.3-0.2c-0.1-0.1-0.2-0.2-0.2-0.3C11,7.3,11,7.1,11,7
		s0-0.3,0.1-0.4c0.1-0.1,0.1-0.2,0.2-0.3c0.1-0.1,0.2-0.2,0.3-0.2C11.7,6,11.9,6,12,6s0.3,0,0.4,0.1c0.1,0.1,0.2,0.1,0.3,0.2
		c0.1,0.1,0.2,0.2,0.2,0.3C13,6.7,13,6.9,13,7s0,0.3-0.1,0.4c-0.1,0.1-0.1,0.2-0.2,0.3c-0.1,0.1-0.2,0.2-0.3,0.2C12.3,8,12.1,8,12,8
		z"/>
</g>
</svg>
