<?xml version="1.0" encoding="utf-8"?>
<!-- Generator: Adobe Illustrator 22.1.0, SVG Export Plug-In . SVG Version: 6.00 Build 0)  -->
<svg version="1.1" id="Layer_1" xmlns="http://www.w3.org/2000/svg" xmlns:xlink="http://www.w3.org/1999/xlink" x="0px" y="0px"
	 viewBox="0 0 16 16" style="enable-background:new 0 0 16 16;" xml:space="preserve">
<g>
	<path d="M8,15.5c-0.7,0-1.4-0.1-2-0.3s-1.2-0.4-1.8-0.8s-1.1-0.7-1.5-1.2c-0.5-0.5-0.8-1-1.2-1.5c-0.3-0.6-0.6-1.2-0.8-1.8
		C0.6,9.4,0.5,8.7,0.5,8c0-0.7,0.1-1.4,0.3-2c0.2-0.6,0.4-1.2,0.8-1.8c0.3-0.6,0.7-1.1,1.2-1.5c0.5-0.5,1-0.8,1.5-1.2
		C4.8,1.2,5.4,0.9,6,0.8c0.6-0.2,1.3-0.3,2-0.3s1.4,0.1,2,0.3c0.6,0.2,1.2,0.4,1.8,0.8c0.6,0.3,1.1,0.7,1.5,1.2
		c0.5,0.5,0.8,1,1.2,1.5c0.3,0.6,0.6,1.2,0.8,1.8c0.2,0.6,0.3,1.3,0.3,2c0,0.7-0.1,1.4-0.3,2s-0.4,1.2-0.8,1.8s-0.7,1.1-1.2,1.5
		s-1,0.8-1.5,1.2s-1.2,0.6-1.8,0.8S8.7,15.5,8,15.5z M8,1.5c-0.6,0-1.2,0.1-1.7,0.2S5.2,2.1,4.7,2.4S3.8,3,3.4,3.4
		C3,3.8,2.7,4.2,2.4,4.7c-0.3,0.5-0.5,1-0.7,1.6S1.5,7.4,1.5,8s0.1,1.2,0.2,1.7s0.4,1.1,0.7,1.6s0.6,0.9,1,1.3
		c0.4,0.4,0.8,0.7,1.3,1s1,0.5,1.6,0.7s1.1,0.2,1.7,0.2c0.6,0,1.2-0.1,1.7-0.2s1.1-0.4,1.6-0.7s0.9-0.6,1.3-1s0.7-0.8,1-1.3
		s0.5-1,0.7-1.6s0.2-1.1,0.2-1.7c0-0.6-0.1-1.2-0.2-1.7s-0.4-1.1-0.7-1.6c-0.3-0.5-0.6-0.9-1-1.3c-0.4-0.4-0.8-0.7-1.3-1
		s-1-0.5-1.6-0.7S8.6,1.5,8,1.5z M7.5,4.5h1v1h-1V4.5z M7.5,6.5h1v5h-1V6.5z"/>
</g>
</svg>
