<?xml version="1.0" encoding="utf-8"?>
<!-- Generator: Adobe Illustrator 22.1.0, SVG Export Plug-In . SVG Version: 6.00 Build 0)  -->
<svg version="1.1" id="Layer_1" xmlns="http://www.w3.org/2000/svg" xmlns:xlink="http://www.w3.org/1999/xlink" x="0px" y="0px"
	 viewBox="0 0 16 16" style="enable-background:new 0 0 16 16;" xml:space="preserve">
<g>
	<path d="M2,7c0.1,0,0.3,0,0.4,0.1c0.1,0.1,0.2,0.1,0.3,0.2c0.1,0.1,0.2,0.2,0.2,0.3C3,7.7,3,7.9,3,8s0,0.3-0.1,0.4
		C2.9,8.5,2.8,8.6,2.7,8.7C2.6,8.8,2.5,8.9,2.4,8.9C2.3,9,2.1,9,2,9S1.7,9,1.6,8.9C1.5,8.9,1.4,8.8,1.3,8.7C1.2,8.6,1.1,8.5,1.1,8.4
		C1,8.3,1,8.1,1,8s0-0.3,0.1-0.4c0.1-0.1,0.1-0.2,0.2-0.3c0.1-0.1,0.2-0.2,0.3-0.2C1.7,7,1.9,7,2,7z M8,7c0.1,0,0.3,0,0.4,0.1
		c0.1,0.1,0.2,0.1,0.3,0.2c0.1,0.1,0.2,0.2,0.2,0.3C9,7.7,9,7.9,9,8s0,0.3-0.1,0.4C8.9,8.5,8.8,8.6,8.7,8.7C8.6,8.8,8.5,8.9,8.4,8.9
		C8.3,9,8.1,9,8,9S7.7,9,7.6,8.9C7.5,8.9,7.4,8.8,7.3,8.7C7.2,8.6,7.1,8.5,7.1,8.4C7,8.3,7,8.1,7,8s0-0.3,0.1-0.4
		c0.1-0.1,0.1-0.2,0.2-0.3c0.1-0.1,0.2-0.2,0.3-0.2C7.7,7,7.9,7,8,7z M14,7c0.1,0,0.3,0,0.4,0.1c0.1,0.1,0.2,0.1,0.3,0.2
		c0.1,0.1,0.2,0.2,0.2,0.3C15,7.7,15,7.9,15,8s0,0.3-0.1,0.4c-0.1,0.1-0.1,0.2-0.2,0.3c-0.1,0.1-0.2,0.2-0.3,0.2C14.3,9,14.1,9,14,9
		s-0.3,0-0.4-0.1c-0.1-0.1-0.2-0.1-0.3-0.2c-0.1-0.1-0.2-0.2-0.2-0.3C13,8.3,13,8.1,13,8s0-0.3,0.1-0.4c0.1-0.1,0.1-0.2,0.2-0.3
		c0.1-0.1,0.2-0.2,0.3-0.2C13.7,7,13.9,7,14,7z"/>
</g>
</svg>
