<?xml version="1.0" encoding="utf-8"?>
<!-- Generator: Adobe Illustrator 22.1.0, SVG Export Plug-In . SVG Version: 6.00 Build 0)  -->
<svg version="1.1" id="Layer_1" xmlns="http://www.w3.org/2000/svg" xmlns:xlink="http://www.w3.org/1999/xlink" x="0px" y="0px"
	 viewBox="0 0 16 16" style="enable-background:new 0 0 16 16;" xml:space="preserve">
<g>
	<path d="M3,10.7V16H2v-5.3L0.7,12L0,11.3l2.5-2.5L5,11.3L4.3,12L3,10.7z M13,0c0.1,0,0.3,0,0.4,0.1c0.1,0.1,0.2,0.1,0.3,0.2
		c0.1,0.1,0.2,0.2,0.2,0.3C14,0.7,14,0.9,14,1v7.8c0,0.2,0,0.3,0.1,0.4s0.1,0.2,0.2,0.3s0.2,0.2,0.2,0.3s0.2,0.2,0.2,0.4
		s0.1,0.3,0.2,0.5S15,11,15,11.2V15c0,0.1,0,0.3-0.1,0.4s-0.1,0.2-0.2,0.3s-0.2,0.2-0.3,0.2S14.1,16,14,16H4v-1h8v-3.8
		c0-0.2,0-0.4,0.1-0.6s0.1-0.3,0.2-0.5s0.2-0.3,0.2-0.4s0.2-0.2,0.2-0.3s0.1-0.2,0.2-0.3S13,8.9,13,8.8V1H3v6.8H2V0H13z M14,11.2
		c0-0.1,0-0.2,0-0.3s-0.1-0.2-0.1-0.3s-0.1-0.2-0.2-0.2s-0.1-0.2-0.2-0.2c-0.1,0.1-0.1,0.2-0.2,0.2s-0.1,0.2-0.2,0.2
		s-0.1,0.2-0.1,0.3s0,0.2,0,0.3V15h1V11.2z"/>
</g>
</svg>
