<?xml version="1.0" encoding="utf-8"?>
<!-- Generator: Adobe Illustrator 22.1.0, SVG Export Plug-In . SVG Version: 6.00 Build 0)  -->
<svg version="1.1" id="Layer_1" xmlns="http://www.w3.org/2000/svg" xmlns:xlink="http://www.w3.org/1999/xlink" x="0px" y="0px"
	 viewBox="0 0 16 16" style="enable-background:new 0 0 16 16;" xml:space="preserve">
<style type="text/css">
	.st0{fill:#FA4343;}
	.st1{fill:#272235;}
</style>
<path class="st0" d="M8,0C3.6,0,0,3.6,0,8s3.6,8,8,8s8-3.6,8-8S12.4,0,8,0z M8,14.7c-3.7,0-6.7-3-6.7-6.7s3-6.7,6.7-6.7
	s6.7,3,6.7,6.7S11.7,14.7,8,14.7z"/>
<path class="st1" d="M9.7,10.6H6.3c-0.6,0-1-0.4-1-1V6.2c0-0.6,0.4-1,1-1h3.4c0.6,0,1,0.4,1,1v3.4C10.7,10.1,10.2,10.6,9.7,10.6z"/>
</svg>
