<?xml version="1.0" encoding="utf-8"?>
<!-- Generator: Adobe Illustrator 22.1.0, SVG Export Plug-In . SVG Version: 6.00 Build 0)  -->
<svg version="1.1" id="Layer_1" xmlns="http://www.w3.org/2000/svg" xmlns:xlink="http://www.w3.org/1999/xlink" x="0px" y="0px"
	 viewBox="0 0 16 16" style="enable-background:new 0 0 16 16;" xml:space="preserve">
<g>
	<path d="M12.5,1.4c0.7,0.5,1.3,1.1,1.9,1.8c0.5,0.7,0.9,1.4,1.2,2.3C15.9,6.2,16,7.1,16,8c0,0.7-0.1,1.4-0.3,2.1
		c-0.2,0.7-0.5,1.3-0.8,1.9c-0.3,0.6-0.8,1.1-1.2,1.6c-0.5,0.5-1,0.9-1.6,1.2c-0.6,0.3-1.2,0.6-1.9,0.8C9.4,15.9,8.7,16,8,16
		s-1.4-0.1-2.1-0.3c-0.7-0.2-1.3-0.5-1.9-0.8c-0.6-0.3-1.1-0.8-1.6-1.2c-0.5-0.5-0.9-1-1.2-1.6c-0.3-0.6-0.6-1.2-0.8-1.9
		C0.1,9.4,0,8.7,0,8c0-0.7,0.1-1.4,0.3-2.1c0.2-0.7,0.5-1.3,0.8-1.9c0.4-0.6,0.8-1.2,1.3-1.7C2.9,1.8,3.5,1.4,4.1,1H2V0h4v4H5V1.7
		C4.4,2,3.8,2.3,3.3,2.8C2.9,3.2,2.4,3.7,2.1,4.3C1.7,4.8,1.5,5.4,1.3,6C1.1,6.7,1,7.3,1,8c0,0.6,0.1,1.3,0.2,1.9
		C1.4,10.5,1.7,11,2,11.5c0.3,0.5,0.7,1,1.1,1.4C3.5,13.4,4,13.7,4.5,14c0.5,0.3,1.1,0.5,1.7,0.7C6.7,14.9,7.4,15,8,15
		c0.6,0,1.3-0.1,1.9-0.2c0.6-0.2,1.2-0.4,1.7-0.7c0.5-0.3,1-0.7,1.4-1.1c0.4-0.4,0.8-0.9,1.1-1.4c0.3-0.5,0.5-1.1,0.7-1.7
		C14.9,9.3,15,8.6,15,8c0-0.8-0.1-1.5-0.4-2.3c-0.3-0.7-0.6-1.4-1.1-2s-1-1.1-1.6-1.5c-0.6-0.4-1.3-0.8-2.1-1l0.3-1
		C11,0.5,11.8,0.9,12.5,1.4z"/>
</g>
</svg>
